<svg width="36" height="35" viewBox="0 0 36 35" fill="none" xmlns="http://www.w3.org/2000/svg">
<path d="M9.25029 33.7811C8.89391 33.7811 8.55212 33.6395 8.30012 33.3875C8.04812 33.1355 7.90654 32.7937 7.90654 32.4373V25.265C7.16935 25.6167 6.35233 25.7674 5.53818 25.7018C4.84883 25.6511 4.17911 25.4491 3.5767 25.1102C2.97428 24.7713 2.45398 24.3037 2.05282 23.7408C1.65166 23.178 1.3795 22.5336 1.25572 21.8535C1.13193 21.1735 1.15957 20.4745 1.33665 19.8064C1.51373 19.1382 1.83591 18.5173 2.28026 17.9879C2.72461 17.4584 3.2802 17.0334 3.90749 16.7431C4.53478 16.4528 5.21835 16.3043 5.90955 16.3082C6.60076 16.3122 7.28259 16.4684 7.90654 16.7658V9.59356C7.90654 9.23717 8.04812 8.89538 8.30012 8.64338C8.55212 8.39138 8.89391 8.24981 9.25029 8.24981H17.0944C16.7428 7.51261 16.5921 6.69559 16.6577 5.88145C16.7084 5.19209 16.9103 4.52237 17.2493 3.91996C17.5882 3.31755 18.0557 2.79724 18.6186 2.39608C19.1815 1.99492 19.8259 1.72276 20.506 1.59898C21.186 1.4752 21.885 1.50283 22.5531 1.67991C23.2212 1.857 23.8421 2.17918 24.3716 2.62352C24.9011 3.06787 25.3261 3.62346 25.6164 4.25075C25.9067 4.87804 26.0552 5.56161 26.0512 6.25282C26.0473 6.94402 25.8911 7.62586 25.5937 8.24981H33.4378C33.7942 8.24981 34.136 8.39138 34.388 8.64338C34.64 8.89538 34.7815 9.23717 34.7815 9.59356V16.7658C34.0443 16.4142 33.2273 16.2635 32.4132 16.3291C31.7238 16.3798 31.0541 16.5817 30.4517 16.9207C29.8493 17.2596 29.329 17.7271 28.9278 18.29C28.5267 18.8529 28.2545 19.4973 28.1307 20.1773C28.0069 20.8574 28.0346 21.5563 28.2117 22.2245C28.3887 22.8926 28.7109 23.5135 29.1553 24.043C29.5996 24.5725 30.1552 24.9975 30.7825 25.2878C31.4098 25.5781 32.0934 25.7266 32.7846 25.7226C33.4758 25.7187 34.1576 25.5625 34.7815 25.265V32.4373C34.7815 32.7937 34.64 33.1355 34.388 33.3875C34.136 33.6395 33.7942 33.7811 33.4378 33.7811H9.25029Z" stroke="white" stroke-width="2" stroke-linecap="round" stroke-linejoin="round"/>
</svg>
